<svg width="48" height="48" viewBox="0 0 48 48" fill="none" xmlns="http://www.w3.org/2000/svg">
<path d="M24.0002 3.99902C12.9802 3.99902 4.00024 12.979 4.00024 23.999C4.00024 35.019 12.9802 43.999 24.0002 43.999C35.0202 43.999 44.0002 35.019 44.0002 23.999C44.0002 12.979 35.0202 3.99902 24.0002 3.99902ZM33.5602 19.399L22.2202 30.739C21.9402 31.019 21.5602 31.179 21.1602 31.179C20.7602 31.179 20.3802 31.019 20.1002 30.739L14.4402 25.079C13.8602 24.499 13.8602 23.539 14.4402 22.959C15.0202 22.379 15.9802 22.379 16.5602 22.959L21.1602 27.559L31.4402 17.279C32.0202 16.699 32.9802 16.699 33.5602 17.279C34.1402 17.859 34.1402 18.799 33.5602 19.399Z" fill="#1C8234"/>
</svg>
