<svg width="48" height="48" viewBox="0 0 48 48" fill="none" xmlns="http://www.w3.org/2000/svg">
<path d="M40.8277 29.5283L29.7931 8.40143C28.3104 5.55884 26.2586 4 24 4C21.7414 4 19.6896 5.55884 18.2069 8.40143L7.17228 29.5283C5.77572 32.2241 5.62055 34.81 6.74125 36.8456C7.86194 38.8813 10.0689 40 12.9654 40H35.0346C37.9311 40 40.1381 38.8813 41.2588 36.8456C42.3795 34.81 42.2243 32.2058 40.8277 29.5283ZM22.7069 16.8375C22.7069 16.0856 23.2931 15.462 24 15.462C24.7069 15.462 25.2931 16.0856 25.2931 16.8375V26.0071C25.2931 26.759 24.7069 27.3826 24 27.3826C23.2931 27.3826 22.7069 26.759 22.7069 26.0071V16.8375ZM25.2241 32.811C25.1379 32.8844 25.0517 32.9577 24.9655 33.0311C24.8621 33.1044 24.7586 33.1595 24.6552 33.1961C24.5517 33.2511 24.4483 33.2878 24.3276 33.3062C24.2241 33.3245 24.1034 33.3428 24 33.3428C23.8965 33.3428 23.7759 33.3245 23.6552 33.3062C23.5517 33.2878 23.4483 33.2511 23.3448 33.1961C23.2414 33.1595 23.1379 33.1044 23.0345 33.0311C22.9483 32.9577 22.8621 32.8844 22.7759 32.811C22.4655 32.4626 22.2758 31.9857 22.2758 31.5089C22.2758 31.0321 22.4655 30.5553 22.7759 30.2068C22.8621 30.1335 22.9483 30.0601 23.0345 29.9868C23.1379 29.9134 23.2414 29.8584 23.3448 29.8217C23.4483 29.7667 23.5517 29.73 23.6552 29.7117C23.8793 29.6567 24.1207 29.6567 24.3276 29.7117C24.4483 29.73 24.5517 29.7667 24.6552 29.8217C24.7586 29.8584 24.8621 29.9134 24.9655 29.9868C25.0517 30.0601 25.1379 30.1335 25.2241 30.2068C25.5345 30.5553 25.7241 31.0321 25.7241 31.5089C25.7241 31.9857 25.5345 32.4626 25.2241 32.811Z" fill="#BF5208"/>
</svg>
