<svg xmlns="http://www.w3.org/2000/svg" viewBox="0 0 48 48" width="48" height="48">
  <path fill="#999999" d="M42.75 24c0 10.59375-8.53125 19.21875-19.125 19.21875-10.6875 0-19.21875-8.625-19.21875-19.21875 0-10.59375 8.53125-19.21875 19.21875-19.21875 10.59375 0 19.125 8.625 19.125 19.21875zM23.625 14.0625c-3.09375 0-5.90625 2.25-5.90625 5.4375 0 0.84375 0.75 1.59375 1.59375 1.59375 0.84375 0 1.59375-0.75 1.59375-1.59375 0-1.125 1.03125-2.25 2.71875-2.25 1.59375 0 2.625 1.125 2.625 2.25 0 0.5625-0.375 1.03125-1.3125 1.59375l0 0c-1.125 0.75-3 1.96875-3 4.5l0 0.46875c0 0.84375 0.75 1.59375 1.6875 1.59375 0.84375 0 1.59375-0.75 1.59375-1.59375l0-0.46875c0-0.65625 0.28125-1.125 1.40625-1.78125 1.03125-0.65625 2.8125-1.875 2.8125-4.3125 0-3.1875-2.8125-5.4375-5.8125-5.4375zM23.53125 31.875c-0.84375 0-1.59375 0.65625-1.59375 1.59375 0 0.84375 0.75 1.59375 1.59375 1.59375l0.09375 0c0.84375 0 1.59375-0.75 1.59375-1.59375 0-0.9375-0.75-1.59375-1.59375-1.59375z"/>
</svg>